<svg width="300" height="49" viewBox="0 0 300 49" fill="none" xmlns="http://www.w3.org/2000/svg">
<g filter="url(#filter0_dd_13_799)">
<rect x="9.18848" y="4.7063" width="46.6143" height="30.0304" rx="5.37857" fill="white"/>
<rect x="9.07642" y="4.59425" width="46.8384" height="30.2545" rx="5.49062" stroke="#D6DCE5" stroke-width="0.224107"/>
<path d="M32.2107 14.8275L30.0365 24.9911H27.4074L29.5819 14.8275H32.2107ZM43.2724 21.3902L44.6566 17.5734L45.4531 21.3902H43.2724ZM46.2058 24.9911H48.6377L46.5156 14.8275H44.2709C43.7665 14.8275 43.3409 15.1209 43.1514 15.5732L39.207 24.9911H41.968L42.5161 23.4734H45.8893L46.2058 24.9911ZM39.344 21.6726C39.3553 18.9901 35.6344 18.8425 35.6601 17.6442C35.6678 17.2791 36.0156 16.8918 36.7751 16.7924C37.1524 16.7432 38.1898 16.7055 39.3678 17.2475L39.8291 15.0923C39.1964 14.8626 38.3822 14.6416 37.3695 14.6416C34.771 14.6416 32.9419 16.0232 32.9265 18.0016C32.9101 19.4646 34.2322 20.281 35.2284 20.7674C36.2527 21.2657 36.5969 21.5848 36.5924 22.0303C36.5856 22.7126 35.7753 23.0131 35.0193 23.025C33.6972 23.0459 32.93 22.6682 32.3185 22.3832L31.8421 24.6102C32.4562 24.8923 33.5901 25.1374 34.7665 25.15C37.5281 25.15 39.335 23.7854 39.344 21.6726ZM28.4538 14.8275L24.1941 24.9911H21.4144L19.3184 16.8799C19.191 16.3803 19.0803 16.1976 18.6933 15.9869C18.0619 15.6443 17.018 15.3223 16.0996 15.1228L16.1623 14.8275H20.636C21.206 14.8275 21.7191 15.2071 21.8484 15.8637L22.9556 21.7453L25.6915 14.8275H28.4538Z" fill="#1434CB"/>
</g>
<g filter="url(#filter1_dd_13_799)">
<rect x="67.8027" y="4.7063" width="46.6143" height="30.0304" rx="5.37857" fill="white"/>
<rect x="67.6907" y="4.59425" width="46.8384" height="30.2545" rx="5.49062" stroke="#D6DCE5" stroke-width="0.224107"/>
<path d="M94.4583 13.5547H87.595V25.8882H94.4583V13.5547Z" fill="#FF5F00"/>
<path d="M88.0308 19.7214C88.0297 18.5336 88.2989 17.3611 88.8179 16.2927C89.337 15.2243 90.0923 14.288 91.0267 13.5547C89.8695 12.6452 88.4799 12.0795 87.0165 11.9225C85.5531 11.7654 84.0751 12.0232 82.7513 12.6665C81.4275 13.3097 80.3115 14.3124 79.5306 15.56C78.7498 16.8076 78.3357 18.2497 78.3357 19.7214C78.3357 21.1932 78.7498 22.6353 79.5306 23.8829C80.3115 25.1304 81.4275 26.1332 82.7513 26.7764C84.0751 27.4196 85.5531 27.6775 87.0165 27.5204C88.4799 27.3633 89.8695 26.7977 91.0267 25.8882C90.0923 25.1548 89.337 24.2185 88.8179 23.1501C88.2989 22.0817 88.0297 20.9092 88.0308 19.7214Z" fill="#EB001B"/>
<path d="M103.717 19.7214C103.717 21.1932 103.303 22.6353 102.522 23.8828C101.742 25.1304 100.626 26.1331 99.3018 26.7764C97.9781 27.4196 96.5001 27.6775 95.0367 27.5204C93.5734 27.3633 92.1837 26.7977 91.0267 25.8882C91.9602 25.1541 92.7149 24.2176 93.2339 23.1494C93.7528 22.0812 94.0225 20.9091 94.0225 19.7214C94.0225 18.5338 93.7528 17.3617 93.2339 16.2935C92.7149 15.2252 91.9602 14.2888 91.0267 13.5547C92.1837 12.6452 93.5734 12.0795 95.0367 11.9225C96.5001 11.7654 97.9781 12.0232 99.3018 12.6665C100.626 13.3097 101.742 14.3125 102.522 15.56C103.303 16.8076 103.717 18.2497 103.717 19.7214Z" fill="#F79E1B"/>
<path d="M102.969 24.5819V24.3294H103.071V24.2779H102.811V24.3294H102.913V24.5819H102.969ZM103.472 24.5819V24.2774H103.393L103.301 24.4868L103.21 24.2774H103.13V24.5819H103.187V24.3522L103.272 24.5502H103.33L103.416 24.3517V24.5819H103.472Z" fill="#F79E1B"/>
</g>
<g filter="url(#filter2_dd_13_799)">
<rect x="126.417" y="4.7063" width="46.6143" height="30.0304" rx="5.37857" fill="white"/>
<rect x="126.305" y="4.59425" width="46.8384" height="30.2545" rx="5.49062" stroke="#D6DCE5" stroke-width="0.224107"/>
<path fill-rule="evenodd" clip-rule="evenodd" d="M136.614 15.3523H133.927C133.743 15.3523 133.586 15.4859 133.558 15.6674L132.471 22.5581C132.449 22.6942 132.554 22.8167 132.692 22.8167H133.975C134.159 22.8167 134.316 22.6831 134.344 22.5012L134.637 20.6427C134.666 20.4607 134.823 20.3272 135.006 20.3272H135.857C137.627 20.3272 138.649 19.4706 138.916 17.7732C139.036 17.0306 138.921 16.4471 138.573 16.0383C138.191 15.5898 137.513 15.3523 136.614 15.3523ZM136.924 17.869C136.777 18.8333 136.04 18.8333 135.328 18.8333H134.922L135.207 17.0324C135.224 16.9237 135.318 16.8435 135.428 16.8435H135.614C136.099 16.8435 136.557 16.8435 136.794 17.1201C136.935 17.2852 136.978 17.5303 136.924 17.869ZM144.648 17.8381H143.361C143.251 17.8381 143.156 17.9183 143.139 18.0272L143.082 18.3871L142.992 18.2567C142.714 17.8523 142.093 17.7172 141.472 17.7172C140.05 17.7172 138.836 18.7942 138.599 20.3051C138.476 21.0586 138.651 21.7792 139.078 22.2818C139.471 22.7438 140.032 22.9364 140.699 22.9364C141.845 22.9364 142.481 22.1996 142.481 22.1996L142.423 22.5572C142.402 22.694 142.507 22.8165 142.644 22.8165H143.803C143.988 22.8165 144.143 22.6829 144.172 22.5011L144.868 18.0967C144.89 17.9612 144.785 17.8381 144.648 17.8381ZM142.854 20.3427C142.729 21.0778 142.146 21.5713 141.402 21.5713C141.028 21.5713 140.729 21.4515 140.538 21.2244C140.347 20.9989 140.275 20.6778 140.336 20.3203C140.452 19.5914 141.045 19.0819 141.778 19.0819C142.143 19.0819 142.44 19.2031 142.636 19.4323C142.832 19.6637 142.91 19.9867 142.854 20.3427ZM150.209 17.8379H151.502C151.683 17.8379 151.789 18.0411 151.686 18.1896L147.384 24.3977C147.315 24.4983 147.2 24.5581 147.077 24.5581H145.786C145.604 24.5581 145.498 24.3534 145.603 24.2045L146.942 22.3141L145.518 18.1342C145.469 17.9889 145.576 17.8379 145.73 17.8379H147.001C147.166 17.8379 147.312 17.9463 147.36 18.1043L148.116 20.6289L149.899 18.0018C149.969 17.8992 150.085 17.8379 150.209 17.8379Z" fill="#253B80"/>
<path fill-rule="evenodd" clip-rule="evenodd" d="M164.231 22.5575L165.334 15.5408C165.351 15.4319 165.445 15.3517 165.555 15.3513H166.797C166.934 15.3513 167.039 15.4742 167.017 15.6102L165.93 22.5006C165.901 22.6825 165.745 22.8161 165.561 22.8161H164.452C164.315 22.8161 164.209 22.6935 164.231 22.5575ZM155.784 15.3517H153.096C152.913 15.3517 152.756 15.4853 152.728 15.6668L151.641 22.5575C151.619 22.6935 151.724 22.8161 151.862 22.8161H153.241C153.369 22.8161 153.479 22.7226 153.499 22.5954L153.807 20.6421C153.835 20.4601 153.992 20.3266 154.176 20.3266H155.026C156.797 20.3266 157.818 19.47 158.085 17.7726C158.206 17.03 158.09 16.4465 157.742 16.0377C157.361 15.5892 156.684 15.3517 155.784 15.3517ZM156.094 17.8684C155.948 18.8327 155.211 18.8327 154.498 18.8327H154.093L154.378 17.0318C154.395 16.9231 154.488 16.8429 154.598 16.8429H154.784C155.269 16.8429 155.728 16.8429 155.964 17.1195C156.105 17.2846 156.148 17.5297 156.094 17.8684ZM163.817 17.8375H162.531C162.42 17.8375 162.327 17.9177 162.31 18.0266L162.253 18.3865L162.163 18.2561C161.884 17.8517 161.263 17.7166 160.643 17.7166C159.221 17.7166 158.007 18.7936 157.77 20.3044C157.647 21.058 157.821 21.7786 158.249 22.2811C158.642 22.7432 159.202 22.9357 159.87 22.9357C161.016 22.9357 161.651 22.199 161.651 22.199L161.594 22.5566C161.572 22.6934 161.678 22.8159 161.816 22.8159H162.974C163.158 22.8159 163.314 22.6823 163.343 22.5004L164.039 18.0961C164.06 17.9606 163.955 17.8375 163.817 17.8375ZM162.023 20.3421C161.9 21.0772 161.315 21.5707 160.571 21.5707C160.198 21.5707 159.899 21.4509 159.707 21.2238C159.517 20.9983 159.445 20.6772 159.505 20.3197C159.622 19.5908 160.214 19.0813 160.947 19.0813C161.313 19.0813 161.61 19.2025 161.806 19.4316C162.002 19.6631 162.08 19.9861 162.023 20.3421Z" fill="#179BD7"/>
</g>
<g filter="url(#filter3_dd_13_799)">
<rect x="185.031" y="4.7063" width="46.6143" height="30.0304" rx="5.37857" fill="white"/>
<rect x="184.919" y="4.59425" width="46.8384" height="30.2545" rx="5.49062" stroke="#D6DCE5" stroke-width="0.224107"/>
<path d="M200.108 15.7878C200.419 15.3988 200.63 14.8765 200.575 14.3428C200.119 14.3654 199.564 14.6431 199.242 15.0324C198.953 15.3658 198.698 15.9099 198.764 16.4213C199.275 16.4656 199.786 16.1658 200.108 15.7878Z" fill="#000008"/>
<path d="M200.569 16.5211C199.827 16.4769 199.196 16.9423 198.841 16.9423C198.487 16.9423 197.944 16.5434 197.357 16.5542C196.593 16.5654 195.884 16.9974 195.496 17.6844C194.699 19.0589 195.286 21.0977 196.061 22.2171C196.438 22.7709 196.892 23.3807 197.49 23.3588C198.055 23.3366 198.276 22.9929 198.963 22.9929C199.649 22.9929 199.849 23.3588 200.447 23.3477C201.067 23.3366 201.455 22.7936 201.832 22.2392C202.264 21.6079 202.441 20.9983 202.452 20.9649C202.441 20.9538 201.256 20.4992 201.245 19.1362C201.233 17.9949 202.175 17.4521 202.219 17.4184C201.688 16.6321 200.857 16.5434 200.569 16.5211Z" fill="#000008"/>
<path d="M207.031 14.9766C208.644 14.9766 209.767 16.0885 209.767 17.7073C209.767 19.3319 208.621 20.4496 206.99 20.4496H205.204V23.2898H203.914V14.9766L207.031 14.9766ZM205.204 19.3665H206.685C207.809 19.3665 208.448 18.7616 208.448 17.7131C208.448 16.6646 207.809 16.0655 206.691 16.0655H205.204V19.3665Z" fill="#000008"/>
<path d="M210.104 21.5673C210.104 20.5071 210.917 19.8562 212.357 19.7755L214.016 19.6776V19.211C214.016 18.5369 213.561 18.1337 212.801 18.1337C212.08 18.1337 211.631 18.4793 211.522 19.0209H210.346C210.415 17.9262 211.349 17.1197 212.847 17.1197C214.316 17.1197 215.255 17.8974 215.255 19.113V23.2898H214.062V22.2931H214.033C213.682 22.9672 212.916 23.3934 212.121 23.3934C210.934 23.3934 210.104 22.656 210.104 21.5673ZM214.016 21.02V20.5418L212.524 20.6339C211.781 20.6858 211.36 21.0142 211.36 21.5327C211.36 22.0626 211.798 22.4083 212.466 22.4083C213.336 22.4083 214.016 21.8092 214.016 21.02Z" fill="#000008"/>
<path d="M216.381 25.5193V24.5111C216.473 24.5341 216.68 24.5341 216.784 24.5341C217.36 24.5341 217.671 24.2922 217.861 23.67C217.861 23.6585 217.97 23.3013 217.97 23.2955L215.781 17.2291H217.129L218.662 22.1606H218.685L220.217 17.2291H221.531L219.261 23.6066C218.743 25.0757 218.143 25.5481 216.887 25.5481C216.784 25.5481 216.473 25.5366 216.381 25.5193Z" fill="#000008"/>
</g>
<g filter="url(#filter4_dd_13_799)">
<rect x="243.646" y="4.7063" width="46.6143" height="30.0304" rx="5.37857" fill="white"/>
<rect x="243.533" y="4.59425" width="46.8384" height="30.2545" rx="5.49062" stroke="#D6DCE5" stroke-width="0.224107"/>
<path d="M265.939 23.3204H264.891V15.1621H267.67C268.375 15.1621 268.976 15.3969 269.467 15.8665C269.969 16.3362 270.221 16.9095 270.221 17.5866C270.221 18.2802 269.969 18.8535 269.467 19.3177C268.981 19.7818 268.38 20.0112 267.67 20.0112H265.939V23.3204ZM265.939 16.1669V19.0119H267.692C268.107 19.0119 268.457 18.8699 268.73 18.5914C269.008 18.3129 269.15 17.9744 269.15 17.5921C269.15 17.2153 269.008 16.8822 268.73 16.6037C268.457 16.3143 268.113 16.1723 267.692 16.1723H265.939V16.1669Z" fill="#3C4043"/>
<path d="M272.962 17.5539C273.737 17.5539 274.349 17.7614 274.797 18.1764C275.244 18.5914 275.468 19.1593 275.468 19.8801V23.3204H274.469V22.5449H274.425C273.994 23.1838 273.415 23.5006 272.694 23.5006C272.077 23.5006 271.564 23.3204 271.149 22.9545C270.734 22.5886 270.526 22.1354 270.526 21.5893C270.526 21.0105 270.745 20.5518 271.182 20.2132C271.618 19.8692 272.203 19.6999 272.929 19.6999C273.551 19.6999 274.065 19.8146 274.463 20.044V19.8037C274.463 19.4378 274.321 19.132 274.032 18.8754C273.743 18.6187 273.404 18.4931 273.016 18.4931C272.432 18.4931 271.968 18.7388 271.629 19.2358L270.706 18.6569C271.214 17.9197 271.968 17.5539 272.962 17.5539ZM271.607 21.6057C271.607 21.8787 271.722 22.1081 271.957 22.2883C272.186 22.4685 272.459 22.5613 272.771 22.5613C273.213 22.5613 273.606 22.3975 273.95 22.0699C274.294 21.7422 274.469 21.36 274.469 20.9177C274.141 20.661 273.688 20.53 273.104 20.53C272.678 20.53 272.323 20.6337 272.039 20.8357C271.749 21.0487 271.607 21.3054 271.607 21.6057Z" fill="#3C4043"/>
<path d="M281.169 17.7341L277.674 25.7723H276.593L277.893 22.96L275.588 17.7341H276.73L278.39 21.7423H278.412L280.028 17.7341H281.169Z" fill="#3C4043"/>
<path d="M261.769 19.3504C261.769 19.0086 261.738 18.6815 261.682 18.367H257.287V20.169L259.818 20.1695C259.715 20.7691 259.385 21.2803 258.879 21.621V22.7901H260.385C261.265 21.9759 261.769 20.7724 261.769 19.3504Z" fill="#4285F4"/>
<path d="M258.879 21.6211C258.46 21.9039 257.92 22.0694 257.288 22.0694C256.068 22.0694 255.032 21.247 254.661 20.1385H253.107V21.3442C253.877 22.8721 255.46 23.9205 257.288 23.9205C258.552 23.9205 259.613 23.505 260.386 22.7896L258.879 21.6211Z" fill="#34A853"/>
<path d="M254.515 19.244C254.515 18.9327 254.567 18.6318 254.661 18.3489V17.1432H253.107C252.789 17.775 252.61 18.4882 252.61 19.244C252.61 19.9997 252.79 20.7129 253.107 21.3447L254.661 20.139C254.567 19.8561 254.515 19.5552 254.515 19.244Z" fill="#FABB05"/>
<path d="M257.288 16.4181C257.978 16.4181 258.595 16.6556 259.083 17.1198L260.418 15.7857C259.607 15.0305 258.55 14.5669 257.288 14.5669C255.46 14.5669 253.877 15.6153 253.107 17.1432L254.661 18.3489C255.032 17.2404 256.068 16.4181 257.288 16.4181Z" fill="#E94235"/>
</g>
<defs>
<filter id="filter0_dd_13_799" x="6.96182e-05" y="3.48091e-05" width="64.9911" height="48.4071" filterUnits="userSpaceOnUse" color-interpolation-filters="sRGB">
<feFlood flood-opacity="0" result="BackgroundImageFix"/>
<feColorMatrix in="SourceAlpha" type="matrix" values="0 0 0 0 0 0 0 0 0 0 0 0 0 0 0 0 0 0 127 0" result="hardAlpha"/>
<feOffset dy="0.448214"/>
<feGaussianBlur stdDeviation="2.24107"/>
<feColorMatrix type="matrix" values="0 0 0 0 0.717647 0 0 0 0 0.717647 0 0 0 0 0.717647 0 0 0 0.08 0"/>
<feBlend mode="normal" in2="BackgroundImageFix" result="effect1_dropShadow_13_799"/>
<feColorMatrix in="SourceAlpha" type="matrix" values="0 0 0 0 0 0 0 0 0 0 0 0 0 0 0 0 0 0 127 0" result="hardAlpha"/>
<feOffset dy="4.48214"/>
<feGaussianBlur stdDeviation="4.48214"/>
<feColorMatrix type="matrix" values="0 0 0 0 0.717647 0 0 0 0 0.717647 0 0 0 0 0.717647 0 0 0 0.08 0"/>
<feBlend mode="normal" in2="effect1_dropShadow_13_799" result="effect2_dropShadow_13_799"/>
<feBlend mode="normal" in="SourceGraphic" in2="effect2_dropShadow_13_799" result="shape"/>
</filter>
<filter id="filter1_dd_13_799" x="58.6143" y="3.48091e-05" width="64.9911" height="48.4071" filterUnits="userSpaceOnUse" color-interpolation-filters="sRGB">
<feFlood flood-opacity="0" result="BackgroundImageFix"/>
<feColorMatrix in="SourceAlpha" type="matrix" values="0 0 0 0 0 0 0 0 0 0 0 0 0 0 0 0 0 0 127 0" result="hardAlpha"/>
<feOffset dy="0.448214"/>
<feGaussianBlur stdDeviation="2.24107"/>
<feColorMatrix type="matrix" values="0 0 0 0 0.717647 0 0 0 0 0.717647 0 0 0 0 0.717647 0 0 0 0.08 0"/>
<feBlend mode="normal" in2="BackgroundImageFix" result="effect1_dropShadow_13_799"/>
<feColorMatrix in="SourceAlpha" type="matrix" values="0 0 0 0 0 0 0 0 0 0 0 0 0 0 0 0 0 0 127 0" result="hardAlpha"/>
<feOffset dy="4.48214"/>
<feGaussianBlur stdDeviation="4.48214"/>
<feColorMatrix type="matrix" values="0 0 0 0 0.717647 0 0 0 0 0.717647 0 0 0 0 0.717647 0 0 0 0.08 0"/>
<feBlend mode="normal" in2="effect1_dropShadow_13_799" result="effect2_dropShadow_13_799"/>
<feBlend mode="normal" in="SourceGraphic" in2="effect2_dropShadow_13_799" result="shape"/>
</filter>
<filter id="filter2_dd_13_799" x="117.229" y="3.48091e-05" width="64.9911" height="48.4071" filterUnits="userSpaceOnUse" color-interpolation-filters="sRGB">
<feFlood flood-opacity="0" result="BackgroundImageFix"/>
<feColorMatrix in="SourceAlpha" type="matrix" values="0 0 0 0 0 0 0 0 0 0 0 0 0 0 0 0 0 0 127 0" result="hardAlpha"/>
<feOffset dy="0.448214"/>
<feGaussianBlur stdDeviation="2.24107"/>
<feColorMatrix type="matrix" values="0 0 0 0 0.717647 0 0 0 0 0.717647 0 0 0 0 0.717647 0 0 0 0.08 0"/>
<feBlend mode="normal" in2="BackgroundImageFix" result="effect1_dropShadow_13_799"/>
<feColorMatrix in="SourceAlpha" type="matrix" values="0 0 0 0 0 0 0 0 0 0 0 0 0 0 0 0 0 0 127 0" result="hardAlpha"/>
<feOffset dy="4.48214"/>
<feGaussianBlur stdDeviation="4.48214"/>
<feColorMatrix type="matrix" values="0 0 0 0 0.717647 0 0 0 0 0.717647 0 0 0 0 0.717647 0 0 0 0.08 0"/>
<feBlend mode="normal" in2="effect1_dropShadow_13_799" result="effect2_dropShadow_13_799"/>
<feBlend mode="normal" in="SourceGraphic" in2="effect2_dropShadow_13_799" result="shape"/>
</filter>
<filter id="filter3_dd_13_799" x="175.843" y="3.48091e-05" width="64.9911" height="48.4071" filterUnits="userSpaceOnUse" color-interpolation-filters="sRGB">
<feFlood flood-opacity="0" result="BackgroundImageFix"/>
<feColorMatrix in="SourceAlpha" type="matrix" values="0 0 0 0 0 0 0 0 0 0 0 0 0 0 0 0 0 0 127 0" result="hardAlpha"/>
<feOffset dy="0.448214"/>
<feGaussianBlur stdDeviation="2.24107"/>
<feColorMatrix type="matrix" values="0 0 0 0 0.717647 0 0 0 0 0.717647 0 0 0 0 0.717647 0 0 0 0.08 0"/>
<feBlend mode="normal" in2="BackgroundImageFix" result="effect1_dropShadow_13_799"/>
<feColorMatrix in="SourceAlpha" type="matrix" values="0 0 0 0 0 0 0 0 0 0 0 0 0 0 0 0 0 0 127 0" result="hardAlpha"/>
<feOffset dy="4.48214"/>
<feGaussianBlur stdDeviation="4.48214"/>
<feColorMatrix type="matrix" values="0 0 0 0 0.717647 0 0 0 0 0.717647 0 0 0 0 0.717647 0 0 0 0.08 0"/>
<feBlend mode="normal" in2="effect1_dropShadow_13_799" result="effect2_dropShadow_13_799"/>
<feBlend mode="normal" in="SourceGraphic" in2="effect2_dropShadow_13_799" result="shape"/>
</filter>
<filter id="filter4_dd_13_799" x="234.457" y="3.48091e-05" width="64.9911" height="48.4071" filterUnits="userSpaceOnUse" color-interpolation-filters="sRGB">
<feFlood flood-opacity="0" result="BackgroundImageFix"/>
<feColorMatrix in="SourceAlpha" type="matrix" values="0 0 0 0 0 0 0 0 0 0 0 0 0 0 0 0 0 0 127 0" result="hardAlpha"/>
<feOffset dy="0.448214"/>
<feGaussianBlur stdDeviation="2.24107"/>
<feColorMatrix type="matrix" values="0 0 0 0 0.717647 0 0 0 0 0.717647 0 0 0 0 0.717647 0 0 0 0.08 0"/>
<feBlend mode="normal" in2="BackgroundImageFix" result="effect1_dropShadow_13_799"/>
<feColorMatrix in="SourceAlpha" type="matrix" values="0 0 0 0 0 0 0 0 0 0 0 0 0 0 0 0 0 0 127 0" result="hardAlpha"/>
<feOffset dy="4.48214"/>
<feGaussianBlur stdDeviation="4.48214"/>
<feColorMatrix type="matrix" values="0 0 0 0 0.717647 0 0 0 0 0.717647 0 0 0 0 0.717647 0 0 0 0.08 0"/>
<feBlend mode="normal" in2="effect1_dropShadow_13_799" result="effect2_dropShadow_13_799"/>
<feBlend mode="normal" in="SourceGraphic" in2="effect2_dropShadow_13_799" result="shape"/>
</filter>
</defs>
</svg>
